<mxfile host="app.diagrams.net" modified="2023-12-18T17:43:00.046Z" agent="Mozilla/5.0 (X11; Linux x86_64; rv:120.0) Gecko/20100101 Firefox/120.0" etag="Vm174rbQPIp_7vQ15nSi" version="22.1.11" type="device">
  <diagram name="Page-1" id="Yy_6LQ55qJfV7aUeDTJY">
    <mxGraphModel dx="1362" dy="773" grid="1" gridSize="10" guides="1" tooltips="1" connect="1" arrows="1" fold="1" page="1" pageScale="1" pageWidth="850" pageHeight="1100" math="1" shadow="0">
      <root>
        <mxCell id="0" />
        <mxCell id="1" parent="0" />
        <mxCell id="pxbDZPZYJ-yyuS7tbt8g-30" style="edgeStyle=orthogonalEdgeStyle;rounded=0;orthogonalLoop=1;jettySize=auto;html=1;exitX=1;exitY=0.5;exitDx=0;exitDy=0;entryX=0;entryY=0.5;entryDx=0;entryDy=0;strokeWidth=2;" parent="1" source="Xtjaop7f1kRiqbSTFDj--3" target="B7mRA1lzO-rbIVSwYKUA-5" edge="1">
          <mxGeometry relative="1" as="geometry" />
        </mxCell>
        <mxCell id="Xtjaop7f1kRiqbSTFDj--3" value="Dataset Modifications" style="rhombus;whiteSpace=wrap;html=1;fontStyle=1;strokeWidth=2;" parent="1" vertex="1">
          <mxGeometry x="182.5" y="188.75" width="145" height="142.5" as="geometry" />
        </mxCell>
        <mxCell id="pxbDZPZYJ-yyuS7tbt8g-34" style="edgeStyle=orthogonalEdgeStyle;rounded=0;orthogonalLoop=1;jettySize=auto;html=1;exitX=1;exitY=0.5;exitDx=0;exitDy=0;entryX=0;entryY=0;entryDx=0;entryDy=0;strokeWidth=2;" parent="1" source="Xtjaop7f1kRiqbSTFDj--4" target="pxbDZPZYJ-yyuS7tbt8g-3" edge="1">
          <mxGeometry relative="1" as="geometry">
            <Array as="points">
              <mxPoint x="760" y="110" />
              <mxPoint x="760" y="217" />
            </Array>
          </mxGeometry>
        </mxCell>
        <mxCell id="Xtjaop7f1kRiqbSTFDj--4" value="&lt;div&gt;Non-Private Model&lt;/div&gt;&lt;div&gt; $$\varepsilon=\infty$$&lt;/div&gt;" style="ellipse;whiteSpace=wrap;html=1;aspect=fixed;fontStyle=1;strokeWidth=2;" parent="1" vertex="1">
          <mxGeometry x="580" y="40" width="140" height="140" as="geometry" />
        </mxCell>
        <mxCell id="pxbDZPZYJ-yyuS7tbt8g-18" style="edgeStyle=orthogonalEdgeStyle;rounded=0;orthogonalLoop=1;jettySize=auto;html=1;exitX=1;exitY=0.5;exitDx=0;exitDy=0;entryX=0;entryY=0.5;entryDx=0;entryDy=0;strokeWidth=2;" parent="1" source="Xtjaop7f1kRiqbSTFDj--5" target="pxbDZPZYJ-yyuS7tbt8g-3" edge="1">
          <mxGeometry relative="1" as="geometry">
            <Array as="points">
              <mxPoint x="780" y="255" />
            </Array>
          </mxGeometry>
        </mxCell>
        <mxCell id="Xtjaop7f1kRiqbSTFDj--5" value="Private Model&lt;br&gt;&lt;div&gt; $$\varepsilon=30$$&lt;/div&gt;" style="ellipse;whiteSpace=wrap;html=1;aspect=fixed;fontStyle=1;strokeWidth=2;" parent="1" vertex="1">
          <mxGeometry x="580" y="190" width="140" height="140" as="geometry" />
        </mxCell>
        <mxCell id="pxbDZPZYJ-yyuS7tbt8g-29" style="edgeStyle=orthogonalEdgeStyle;rounded=0;orthogonalLoop=1;jettySize=auto;html=1;exitX=1;exitY=0.5;exitDx=0;exitDy=0;entryX=0;entryY=0.5;entryDx=0;entryDy=0;strokeWidth=2;" parent="1" source="Xtjaop7f1kRiqbSTFDj--10" target="Xtjaop7f1kRiqbSTFDj--3" edge="1">
          <mxGeometry relative="1" as="geometry" />
        </mxCell>
        <mxCell id="Xtjaop7f1kRiqbSTFDj--10" value="Datasets" style="rounded=0;whiteSpace=wrap;html=1;fontStyle=1;strokeWidth=2;" parent="1" vertex="1">
          <mxGeometry x="10" y="230" width="120" height="60" as="geometry" />
        </mxCell>
        <mxCell id="pxbDZPZYJ-yyuS7tbt8g-33" style="edgeStyle=orthogonalEdgeStyle;rounded=0;orthogonalLoop=1;jettySize=auto;html=1;exitX=1;exitY=0.5;exitDx=0;exitDy=0;entryX=0;entryY=1;entryDx=0;entryDy=0;strokeWidth=2;" parent="1" source="Xtjaop7f1kRiqbSTFDj--26" target="pxbDZPZYJ-yyuS7tbt8g-3" edge="1">
          <mxGeometry relative="1" as="geometry">
            <Array as="points">
              <mxPoint x="760" y="410" />
              <mxPoint x="760" y="292" />
            </Array>
          </mxGeometry>
        </mxCell>
        <mxCell id="Xtjaop7f1kRiqbSTFDj--26" value="&lt;div&gt;Private Model&lt;br&gt;&lt;/div&gt;&lt;div&gt; $$\varepsilon=1$$&lt;/div&gt;" style="ellipse;whiteSpace=wrap;html=1;aspect=fixed;fontStyle=1;strokeWidth=2;" parent="1" vertex="1">
          <mxGeometry x="580" y="340" width="140" height="140" as="geometry" />
        </mxCell>
        <mxCell id="pxbDZPZYJ-yyuS7tbt8g-35" style="edgeStyle=orthogonalEdgeStyle;rounded=0;orthogonalLoop=1;jettySize=auto;html=1;exitX=0.5;exitY=1;exitDx=0;exitDy=0;exitPerimeter=0;entryX=0.5;entryY=0;entryDx=0;entryDy=0;endArrow=none;endFill=0;" parent="1" source="Rtd-iMO1QiGIbdPLC6FW-8" target="pxbDZPZYJ-yyuS7tbt8g-3" edge="1">
          <mxGeometry relative="1" as="geometry" />
        </mxCell>
        <mxCell id="Rtd-iMO1QiGIbdPLC6FW-8" value="&lt;ul&gt;&lt;li&gt;&lt;font style=&quot;font-size: 12px;&quot;&gt;Accuracy&lt;/font&gt;&lt;/li&gt;&lt;li&gt;&lt;font style=&quot;font-size: 12px;&quot;&gt;F1-Score&lt;/font&gt;&lt;/li&gt;&lt;li&gt;&lt;font style=&quot;font-size: 12px;&quot;&gt;Train-/ Test Accuracy Gap&lt;/font&gt;&lt;/li&gt;&lt;/ul&gt;" style="shape=card;whiteSpace=wrap;html=1;fontSize=9;verticalAlign=middle;align=left;" parent="1" vertex="1">
          <mxGeometry x="780" y="70" width="145" height="80" as="geometry" />
        </mxCell>
        <mxCell id="B7mRA1lzO-rbIVSwYKUA-1" value="&lt;font style=&quot;font-size: 14px;&quot;&gt;&lt;b&gt;Investigations:&lt;/b&gt;&lt;br&gt;&lt;/font&gt;&lt;ul style=&quot;font-size: 14px;&quot;&gt;&lt;li&gt;&lt;font style=&quot;font-size: 14px;&quot;&gt;Utility-Privacy Tradeoff&lt;/font&gt;&lt;/li&gt;&lt;li&gt;&lt;font style=&quot;font-size: 14px;&quot;&gt;Influence of Dataset Structure&lt;/font&gt;&lt;/li&gt;&lt;ul&gt;&lt;li&gt;&lt;font style=&quot;font-size: 14px;&quot;&gt;Class Size&lt;/font&gt;&lt;/li&gt;&lt;li&gt;&lt;font style=&quot;font-size: 14px;&quot;&gt;Number of Classes&lt;/font&gt;&lt;/li&gt;&lt;li&gt;&lt;font style=&quot;font-size: 14px;&quot;&gt;Dataset Imbalance&lt;br&gt;&lt;/font&gt;&lt;/li&gt;&lt;/ul&gt;&lt;li&gt;&lt;font style=&quot;font-size: 14px;&quot;&gt;Influence of Data&lt;/font&gt;&lt;/li&gt;&lt;ul&gt;&lt;li&gt;&lt;font style=&quot;font-size: 14px;&quot;&gt;Information Density&lt;br&gt;&lt;/font&gt;&lt;/li&gt;&lt;li&gt;&lt;font style=&quot;font-size: 14px;&quot;&gt;Colored Images&lt;/font&gt;&lt;/li&gt;&lt;li&gt;&lt;font style=&quot;font-size: 14px;&quot;&gt;Class Similarity&lt;br&gt;&lt;/font&gt;&lt;/li&gt;&lt;/ul&gt;&lt;/ul&gt;" style="text;html=1;strokeColor=none;fillColor=none;align=left;verticalAlign=middle;whiteSpace=wrap;rounded=0;" parent="1" vertex="1">
          <mxGeometry x="10" y="100" width="230" height="30" as="geometry" />
        </mxCell>
        <mxCell id="pxbDZPZYJ-yyuS7tbt8g-28" style="edgeStyle=orthogonalEdgeStyle;rounded=0;orthogonalLoop=1;jettySize=auto;html=1;exitX=0.5;exitY=0;exitDx=0;exitDy=0;exitPerimeter=0;entryX=0.5;entryY=1;entryDx=0;entryDy=0;endArrow=none;endFill=0;" parent="1" source="B7mRA1lzO-rbIVSwYKUA-3" target="Xtjaop7f1kRiqbSTFDj--10" edge="1">
          <mxGeometry relative="1" as="geometry" />
        </mxCell>
        <mxCell id="B7mRA1lzO-rbIVSwYKUA-3" value="&lt;ul&gt;&lt;li&gt;MNIST&lt;/li&gt;&lt;li&gt;FMNIST&lt;/li&gt;&lt;li&gt;SVHN&lt;/li&gt;&lt;li&gt;CIFAR-10&lt;/li&gt;&lt;li&gt;CIFAR-100&lt;/li&gt;&lt;li&gt;EMNIST&lt;br&gt;&lt;/li&gt;&lt;/ul&gt;" style="shape=card;whiteSpace=wrap;html=1;align=left;rounded=0;shadow=0;" parent="1" vertex="1">
          <mxGeometry x="5" y="357.5" width="130" height="122.5" as="geometry" />
        </mxCell>
        <mxCell id="pxbDZPZYJ-yyuS7tbt8g-27" style="edgeStyle=orthogonalEdgeStyle;rounded=0;orthogonalLoop=1;jettySize=auto;html=1;exitX=0.5;exitY=0;exitDx=0;exitDy=0;exitPerimeter=0;entryX=0.5;entryY=1;entryDx=0;entryDy=0;endArrow=none;endFill=0;" parent="1" source="B7mRA1lzO-rbIVSwYKUA-4" target="Xtjaop7f1kRiqbSTFDj--3" edge="1">
          <mxGeometry relative="1" as="geometry" />
        </mxCell>
        <mxCell id="B7mRA1lzO-rbIVSwYKUA-4" value="&lt;div&gt;&lt;ul&gt;&lt;li&gt;Class Size&lt;/li&gt;&lt;li&gt;Number of Classes&lt;/li&gt;&lt;li&gt;Dataset Imbalance&lt;br&gt;&lt;/li&gt;&lt;/ul&gt;&lt;/div&gt;" style="shape=card;whiteSpace=wrap;html=1;align=left;" parent="1" vertex="1">
          <mxGeometry x="190" y="357.5" width="130" height="122.5" as="geometry" />
        </mxCell>
        <mxCell id="pxbDZPZYJ-yyuS7tbt8g-31" style="edgeStyle=orthogonalEdgeStyle;rounded=0;orthogonalLoop=1;jettySize=auto;html=1;exitX=1;exitY=0.5;exitDx=0;exitDy=0;entryX=0;entryY=0.5;entryDx=0;entryDy=0;strokeWidth=2;" parent="1" source="B7mRA1lzO-rbIVSwYKUA-5" target="Xtjaop7f1kRiqbSTFDj--5" edge="1">
          <mxGeometry relative="1" as="geometry" />
        </mxCell>
        <mxCell id="pxbDZPZYJ-yyuS7tbt8g-38" style="edgeStyle=orthogonalEdgeStyle;rounded=0;orthogonalLoop=1;jettySize=auto;html=1;exitX=1;exitY=0.5;exitDx=0;exitDy=0;entryX=0;entryY=0.5;entryDx=0;entryDy=0;strokeWidth=2;" parent="1" source="B7mRA1lzO-rbIVSwYKUA-5" target="Xtjaop7f1kRiqbSTFDj--4" edge="1">
          <mxGeometry relative="1" as="geometry" />
        </mxCell>
        <mxCell id="pxbDZPZYJ-yyuS7tbt8g-39" style="edgeStyle=orthogonalEdgeStyle;rounded=0;orthogonalLoop=1;jettySize=auto;html=1;exitX=1;exitY=0.5;exitDx=0;exitDy=0;entryX=0;entryY=0.5;entryDx=0;entryDy=0;strokeWidth=2;" parent="1" source="B7mRA1lzO-rbIVSwYKUA-5" target="Xtjaop7f1kRiqbSTFDj--26" edge="1">
          <mxGeometry relative="1" as="geometry" />
        </mxCell>
        <mxCell id="B7mRA1lzO-rbIVSwYKUA-5" value="Data Measurements" style="rhombus;whiteSpace=wrap;html=1;fontStyle=1;strokeWidth=2;" parent="1" vertex="1">
          <mxGeometry x="380" y="187.5" width="150" height="145" as="geometry" />
        </mxCell>
        <mxCell id="pxbDZPZYJ-yyuS7tbt8g-26" style="edgeStyle=orthogonalEdgeStyle;rounded=0;orthogonalLoop=1;jettySize=auto;html=1;exitX=0.5;exitY=0;exitDx=0;exitDy=0;exitPerimeter=0;entryX=0.5;entryY=1;entryDx=0;entryDy=0;endArrow=none;endFill=0;" parent="1" source="B7mRA1lzO-rbIVSwYKUA-6" target="B7mRA1lzO-rbIVSwYKUA-5" edge="1">
          <mxGeometry relative="1" as="geometry" />
        </mxCell>
        <mxCell id="B7mRA1lzO-rbIVSwYKUA-6" value="&lt;div&gt;&lt;br&gt;&lt;ul&gt;&lt;li&gt;Entropy&lt;br&gt;&lt;/li&gt;&lt;li&gt;Compression Ratios&lt;/li&gt;&lt;li&gt;Standard Deviation&lt;/li&gt;&lt;li&gt;Fisher’s Discriminant Ratio&lt;br&gt;&lt;/li&gt;&lt;/ul&gt;&lt;/div&gt;" style="shape=card;whiteSpace=wrap;html=1;align=left;" parent="1" vertex="1">
          <mxGeometry x="375" y="355" width="160" height="125" as="geometry" />
        </mxCell>
        <mxCell id="pxbDZPZYJ-yyuS7tbt8g-6" style="edgeStyle=orthogonalEdgeStyle;rounded=0;orthogonalLoop=1;jettySize=auto;html=1;exitX=0.5;exitY=0;exitDx=0;exitDy=0;exitPerimeter=0;entryX=0.5;entryY=1;entryDx=0;entryDy=0;endArrow=none;endFill=0;" parent="1" source="pxbDZPZYJ-yyuS7tbt8g-1" target="pxbDZPZYJ-yyuS7tbt8g-4" edge="1">
          <mxGeometry relative="1" as="geometry" />
        </mxCell>
        <mxCell id="pxbDZPZYJ-yyuS7tbt8g-1" value="&lt;div style=&quot;font-size: 12px;&quot; align=&quot;left&quot;&gt;&lt;br&gt;&lt;div&gt;&lt;div style=&quot;font-size: 12px;&quot;&gt;&lt;ul&gt;&lt;li&gt;&lt;font style=&quot;font-size: 12px;&quot;&gt;LiRA Attack&lt;/font&gt;&lt;/li&gt;&lt;li&gt;&lt;font style=&quot;font-size: 12px;&quot;&gt;AUC&lt;/font&gt;&lt;/li&gt;&lt;li&gt;&lt;font style=&quot;font-size: 12px;&quot;&gt;TPR @ FPR=0.1&lt;/font&gt;&lt;/li&gt;&lt;li&gt;&lt;font style=&quot;font-size: 12px;&quot;&gt;TPR @ FPR=0.001&lt;br&gt;&lt;/font&gt;&lt;/li&gt;&lt;/ul&gt;&lt;/div&gt;&lt;/div&gt;&lt;/div&gt;" style="shape=card;whiteSpace=wrap;html=1;fontSize=9;verticalAlign=middle;align=left;" parent="1" vertex="1">
          <mxGeometry x="960" y="361" width="150" height="85" as="geometry" />
        </mxCell>
        <mxCell id="pxbDZPZYJ-yyuS7tbt8g-20" style="edgeStyle=orthogonalEdgeStyle;rounded=0;orthogonalLoop=1;jettySize=auto;html=1;exitX=1;exitY=0.5;exitDx=0;exitDy=0;entryX=0;entryY=0.5;entryDx=0;entryDy=0;strokeWidth=2;" parent="1" source="pxbDZPZYJ-yyuS7tbt8g-3" target="pxbDZPZYJ-yyuS7tbt8g-4" edge="1">
          <mxGeometry relative="1" as="geometry" />
        </mxCell>
        <mxCell id="pxbDZPZYJ-yyuS7tbt8g-3" value="&lt;font style=&quot;font-size: 12px;&quot;&gt;Utility Measurement&lt;/font&gt;" style="rhombus;whiteSpace=wrap;html=1;fontStyle=1;strokeWidth=2;" parent="1" vertex="1">
          <mxGeometry x="780" y="180" width="150" height="150" as="geometry" />
        </mxCell>
        <mxCell id="pxbDZPZYJ-yyuS7tbt8g-4" value="&lt;font style=&quot;font-size: 12px;&quot;&gt;Vulnerability Measurement&lt;/font&gt;" style="rhombus;whiteSpace=wrap;html=1;fontStyle=1;strokeWidth=2;" parent="1" vertex="1">
          <mxGeometry x="960" y="180" width="150" height="150" as="geometry" />
        </mxCell>
      </root>
    </mxGraphModel>
  </diagram>
</mxfile>
